<svg width="19" height="19" viewBox="0 0 19 19" fill="none" xmlns="http://www.w3.org/2000/svg">
<rect width="19" height="19" fill="#E5E5E5"/>
<g id="index hover" clip-path="url(#clip0_190_1194)">
<rect width="1600" height="3828" transform="translate(-1351 -18)" fill="white"/>
<g id="Header">
<path id="Rectangle 25" d="M249 -18H-1351V57H249V-18Z" fill="#222222"/>
<g id="Button copy">
<path id="Forma 1" d="M4.19983 37C3.55208 36.9738 2.9404 36.6948 2.49609 36.2227C2.05178 35.7506 1.81028 35.1232 1.82336 34.475C1.83645 33.8269 2.10316 33.2097 2.56616 32.7559C3.02917 32.3022 3.65165 32.048 4.29993 32.048C4.94821 32.048 5.57056 32.3022 6.03357 32.7559C6.49658 33.2097 6.76328 33.8269 6.77637 34.475C6.78946 35.1232 6.54795 35.7506 6.10364 36.2227C5.65933 36.6948 5.04765 36.9738 4.3999 37H4.19983ZM-15.2482 34.32C-15.2482 33.79 -15.091 33.2718 -14.7965 32.8311C-14.502 32.3904 -14.0835 32.0469 -13.5938 31.844C-13.104 31.6412 -12.5652 31.5881 -12.0453 31.6915C-11.5254 31.7949 -11.0479 32.0502 -10.6731 32.425C-10.2983 32.7998 -10.043 33.2773 -9.93958 33.7972C-9.83617 34.317 -9.88932 34.8559 -10.0922 35.3456C-10.295 35.8353 -10.6385 36.2539 -11.0792 36.5483C-11.5199 36.8428 -12.0381 37 -12.5681 37C-12.9202 37.0003 -13.269 36.9311 -13.5944 36.7966C-13.9197 36.662 -14.2154 36.4646 -14.4645 36.2158C-14.7136 35.9669 -14.9111 35.6713 -15.0459 35.3461C-15.1807 35.0208 -15.2501 34.6721 -15.2501 34.32H-15.2482ZM-11.4481 28.686C-11.7076 28.6868 -11.9602 28.6024 -12.167 28.4457C-12.3738 28.2891 -12.5235 28.0689 -12.5931 27.819L-17.4261 10.364H-20.8191C-21.1326 10.364 -21.4332 10.2395 -21.6549 10.0178C-21.8766 9.79614 -22.0011 9.49549 -22.0011 9.18201C-22.0011 8.86852 -21.8766 8.56787 -21.6549 8.3462C-21.4332 8.12454 -21.1326 8.00001 -20.8191 8.00001H-16.5381C-16.2786 7.99919 -16.0261 8.08372 -15.8193 8.24057C-15.6126 8.39742 -15.4633 8.61788 -15.3942 8.86801L-10.5612 26.323H2.61682L6.99988 16.275H-7.6001C-7.75828 16.2796 -7.91574 16.2524 -8.06323 16.1951C-8.21072 16.1377 -8.34523 16.0513 -8.45874 15.9411C-8.57225 15.8308 -8.6625 15.6989 -8.72412 15.5532C-8.78574 15.4074 -8.8175 15.2508 -8.8175 15.0925C-8.8175 14.9343 -8.78574 14.7776 -8.72412 14.6319C-8.6625 14.4861 -8.57225 14.3542 -8.45874 14.2439C-8.34523 14.1337 -8.21072 14.0473 -8.06323 13.9899C-7.91574 13.9326 -7.75828 13.9054 -7.6001 13.91H8.81287C9.00855 13.91 9.20114 13.9587 9.37329 14.0517C9.54544 14.1448 9.69168 14.2793 9.79883 14.443C9.9067 14.6073 9.9723 14.7957 9.98975 14.9914C10.0072 15.1872 9.97604 15.3842 9.89893 15.565L4.4939 27.977C4.40151 28.1876 4.24986 28.3668 4.05737 28.4927C3.86489 28.6186 3.63991 28.6858 3.40991 28.686H-11.4481Z" fill="#E8E8E8"/>
<path id="Ellipse 2" d="M9.49988 19C14.7466 19 18.9999 14.7467 18.9999 9.5C18.9999 4.25329 14.7466 0 9.49988 0C4.25317 0 -0.00012207 4.25329 -0.00012207 9.5C-0.00012207 14.7467 4.25317 19 9.49988 19Z" fill="#F16D7F"/>
<path id="5" d="M8.81189 7.648C9.25989 7.552 9.67189 7.504 10.0479 7.504C10.4959 7.504 10.8919 7.57 11.2359 7.702C11.5799 7.834 11.8659 8.016 12.0939 8.248C12.3259 8.48 12.4999 8.754 12.6159 9.07C12.7359 9.386 12.7959 9.73 12.7959 10.102C12.7959 10.558 12.7159 10.97 12.5559 11.338C12.3999 11.706 12.1819 12.022 11.9019 12.286C11.6259 12.546 11.2999 12.746 10.9239 12.886C10.5479 13.026 10.1419 13.096 9.70589 13.096C9.45389 13.096 9.21189 13.07 8.97989 13.018C8.74789 12.97 8.52989 12.904 8.32589 12.82C8.12589 12.736 7.93989 12.64 7.76789 12.532C7.59589 12.424 7.44389 12.31 7.31189 12.19L7.64189 11.734C7.71389 11.63 7.80789 11.578 7.92389 11.578C8.00389 11.578 8.09389 11.61 8.19389 11.674C8.29389 11.734 8.41589 11.802 8.55989 11.878C8.70389 11.954 8.87189 12.024 9.06389 12.088C9.25989 12.148 9.49189 12.178 9.75989 12.178C10.0599 12.178 10.3299 12.13 10.5699 12.034C10.8099 11.938 11.0159 11.802 11.1879 11.626C11.3599 11.446 11.4919 11.232 11.5839 10.984C11.6759 10.736 11.7219 10.458 11.7219 10.15C11.7219 9.882 11.6819 9.64 11.6019 9.424C11.5259 9.208 11.4079 9.024 11.2479 8.872C11.0919 8.72 10.8959 8.602 10.6599 8.518C10.4239 8.434 10.1479 8.392 9.83189 8.392C9.61589 8.392 9.38989 8.41 9.15389 8.446C8.92189 8.482 8.68389 8.54 8.43989 8.62L7.76789 8.422L8.45789 4.402H12.5319V4.87C12.5319 5.022 12.4839 5.148 12.3879 5.248C12.2959 5.344 12.1359 5.392 11.9079 5.392H9.20789L8.81189 7.648Z" fill="white"/>
</g>
</g>
</g>
<defs>
<clipPath id="clip0_190_1194">
<rect width="1600" height="3828" fill="white" transform="translate(-1351 -18)"/>
</clipPath>
</defs>
</svg>
